<svg width="1080" height="1350" viewBox="0 0 1080 1350" fill="none" xmlns="http://www.w3.org/2000/svg">
  <defs>
    <linearGradient id="bg" x1="0" y1="0" x2="1080" y2="1350" gradientUnits="userSpaceOnUse">
      <stop stop-color="#FFFDF8"/>
      <stop offset="0.48" stop-color="#F1E1C3"/>
      <stop offset="1" stop-color="#D7B47E"/>
    </linearGradient>
    <radialGradient id="glow" cx="0" cy="0" r="1" gradientUnits="userSpaceOnUse" gradientTransform="translate(840 250) rotate(112) scale(310 310)">
      <stop stop-color="#7A4E2A" stop-opacity="0.24"/>
      <stop offset="1" stop-color="#7A4E2A" stop-opacity="0"/>
    </radialGradient>
    <linearGradient id="panel" x1="180" y1="220" x2="880" y2="1020" gradientUnits="userSpaceOnUse">
      <stop stop-color="#FFF7ED"/>
      <stop offset="0.5" stop-color="#EDCEA0"/>
      <stop offset="1" stop-color="#C99A4F"/>
    </linearGradient>
    <filter id="shadow" x="-20%" y="-20%" width="140%" height="140%">
      <feDropShadow dx="0" dy="24" stdDeviation="28" flood-color="#1F1B17" flood-opacity="0.12"/>
    </filter>
  </defs>
  <rect width="1080" height="1350" fill="url(#bg)"/>
  <circle cx="840" cy="250" r="260" fill="url(#glow)"/>
  <circle cx="170" cy="1120" r="240" fill="#7A4E2A" fill-opacity="0.08"/>
  <rect x="120" y="120" width="840" height="1110" rx="68" fill="#FFFDF8" fill-opacity="0.45" stroke="#C7A56A" stroke-opacity="0.18" filter="url(#shadow)"/>
  <rect x="180" y="190" width="720" height="840" rx="52" fill="url(#panel)"/>
  <circle cx="540" cy="490" r="164" fill="#FFFDF8" fill-opacity="0.70"/>
  <circle cx="540" cy="462" r="88" fill="#B77C34" fill-opacity="0.70"/>
  <path d="M418 566C442 509 488 480 540 480C592 480 638 509 662 566L710 752C716 777 698 803 672 803H408C382 803 364 777 370 752L418 566Z" fill="#1F1B17" fill-opacity="0.13"/>
  <path d="M330 948C414 892 490 866 540 866C590 866 666 892 750 948" stroke="#7A4E2A" stroke-opacity="0.70" stroke-width="12" stroke-linecap="round"/>
  <path d="M390 356C468 292 612 292 690 356" stroke="#1F1B17" stroke-opacity="0.38" stroke-width="10" stroke-linecap="round"/>
  <rect x="230" y="1030" width="620" height="74" rx="37" fill="#FFF9F0" fill-opacity="0.72" stroke="#C7A56A" stroke-opacity="0.22"/>
  <text x="220" y="1190" fill="#1F1B17" font-family="Georgia, 'Times New Roman', serif" font-size="58" letter-spacing="0.5">Royal Sangeet</text>
  <text x="220" y="1240" fill="#7E6B54" font-family="Arial, Helvetica, sans-serif" font-size="21" letter-spacing="5">SK MAKEOVER / VIDYA MALAK</text>
</svg>
