<svg width="1080" height="1350" viewBox="0 0 1080 1350" fill="none" xmlns="http://www.w3.org/2000/svg">
  <defs>
    <linearGradient id="bg" x1="0" y1="0" x2="1080" y2="1350" gradientUnits="userSpaceOnUse">
      <stop stop-color="#FFFDF8"/>
      <stop offset="0.52" stop-color="#F8F3EA"/>
      <stop offset="1" stop-color="#EFE5D4"/>
    </linearGradient>
    <radialGradient id="glow" cx="0" cy="0" r="1" gradientUnits="userSpaceOnUse" gradientTransform="translate(830 210) rotate(125) scale(360 360)">
      <stop stop-color="#C7A56A" stop-opacity="0.36"/>
      <stop offset="1" stop-color="#C7A56A" stop-opacity="0"/>
    </radialGradient>
    <linearGradient id="panel" x1="200" y1="220" x2="860" y2="980" gradientUnits="userSpaceOnUse">
      <stop stop-color="#FFF9F0"/>
      <stop offset="0.5" stop-color="#F5EBDD"/>
      <stop offset="1" stop-color="#E7D7B7"/>
    </linearGradient>
    <filter id="shadow" x="-20%" y="-20%" width="140%" height="140%">
      <feDropShadow dx="0" dy="24" stdDeviation="28" flood-color="#1F1B17" flood-opacity="0.12"/>
    </filter>
  </defs>
  <rect width="1080" height="1350" fill="url(#bg)"/>
  <circle cx="850" cy="190" r="270" fill="url(#glow)"/>
  <circle cx="210" cy="1120" r="230" fill="#C7A56A" fill-opacity="0.10"/>
  <rect x="120" y="120" width="840" height="1110" rx="68" fill="#FFFDF8" fill-opacity="0.44" stroke="#C7A56A" stroke-opacity="0.18" filter="url(#shadow)"/>
  <rect x="180" y="190" width="720" height="840" rx="52" fill="url(#panel)"/>
  <circle cx="540" cy="500" r="166" fill="#FFFDF8" fill-opacity="0.72"/>
  <circle cx="540" cy="470" r="88" fill="#E7D7B7" fill-opacity="0.65"/>
  <path d="M428 564C451 509 495 480 540 480C585 480 629 509 652 564L701 752C708 778 688 804 661 804H419C392 804 372 778 379 752L428 564Z" fill="#1F1B17" fill-opacity="0.12"/>
  <path d="M384 356C456 296 626 296 696 356" stroke="#C7A56A" stroke-opacity="0.75" stroke-width="10" stroke-linecap="round"/>
  <path d="M318 950C408 896 489 870 540 870C592 870 671 896 762 950" stroke="#1F1B17" stroke-opacity="0.12" stroke-width="14" stroke-linecap="round"/>
  <rect x="230" y="1030" width="620" height="74" rx="37" fill="#FFF9F0" fill-opacity="0.72" stroke="#C7A56A" stroke-opacity="0.22"/>
  <text x="220" y="1190" fill="#1F1B17" font-family="Georgia, 'Times New Roman', serif" font-size="58" letter-spacing="0.5">Maharani Pearl</text>
  <text x="220" y="1240" fill="#7E6B54" font-family="Arial, Helvetica, sans-serif" font-size="21" letter-spacing="5">SK MAKEOVER / VIDYA MALAK</text>
</svg>
