<svg width="1080" height="1350" viewBox="0 0 1080 1350" fill="none" xmlns="http://www.w3.org/2000/svg">
  <defs>
    <linearGradient id="bg" x1="0" y1="0" x2="1080" y2="1350" gradientUnits="userSpaceOnUse">
      <stop stop-color="#FFFDF8"/>
      <stop offset="0.5" stop-color="#F6E8D1"/>
      <stop offset="1" stop-color="#E7C38D"/>
    </linearGradient>
    <radialGradient id="glow" cx="0" cy="0" r="1" gradientUnits="userSpaceOnUse" gradientTransform="translate(850 980) rotate(180) scale(300 300)">
      <stop stop-color="#D4A24A" stop-opacity="0.38"/>
      <stop offset="1" stop-color="#D4A24A" stop-opacity="0"/>
    </radialGradient>
    <linearGradient id="panel" x1="180" y1="220" x2="880" y2="1020" gradientUnits="userSpaceOnUse">
      <stop stop-color="#FFF7EE"/>
      <stop offset="0.5" stop-color="#F3DDB4"/>
      <stop offset="1" stop-color="#E1B76D"/>
    </linearGradient>
    <filter id="shadow" x="-20%" y="-20%" width="140%" height="140%">
      <feDropShadow dx="0" dy="24" stdDeviation="28" flood-color="#1F1B17" flood-opacity="0.12"/>
    </filter>
  </defs>
  <rect width="1080" height="1350" fill="url(#bg)"/>
  <circle cx="860" cy="980" r="260" fill="url(#glow)"/>
  <circle cx="140" cy="260" r="220" fill="#C7A56A" fill-opacity="0.08"/>
  <rect x="120" y="120" width="840" height="1110" rx="68" fill="#FFFDF8" fill-opacity="0.45" stroke="#C7A56A" stroke-opacity="0.18" filter="url(#shadow)"/>
  <rect x="180" y="190" width="720" height="840" rx="52" fill="url(#panel)"/>
  <circle cx="540" cy="490" r="164" fill="#FFFDF8" fill-opacity="0.68"/>
  <circle cx="540" cy="458" r="86" fill="#E1B76D" fill-opacity="0.72"/>
  <path d="M414 564C438 507 484 478 540 478C596 478 642 507 666 564L712 743C718 768 700 792 674 792H406C380 792 362 768 368 743L414 564Z" fill="#1F1B17" fill-opacity="0.10"/>
  <path d="M350 950C430 888 493 858 540 858C587 858 650 888 730 950" stroke="#D4A24A" stroke-opacity="0.78" stroke-width="13" stroke-linecap="round"/>
  <path d="M382 360C462 294 618 294 698 360" stroke="#7E6B54" stroke-opacity="0.58" stroke-width="10" stroke-linecap="round"/>
  <rect x="230" y="1030" width="620" height="74" rx="37" fill="#FFF9F0" fill-opacity="0.72" stroke="#C7A56A" stroke-opacity="0.22"/>
  <text x="220" y="1190" fill="#1F1B17" font-family="Georgia, 'Times New Roman', serif" font-size="58" letter-spacing="0.5">Golden Hour Bride</text>
  <text x="220" y="1240" fill="#7E6B54" font-family="Arial, Helvetica, sans-serif" font-size="21" letter-spacing="5">SK MAKEOVER / VIDYA MALAK</text>
</svg>
