<svg width="1080" height="1350" viewBox="0 0 1080 1350" fill="none" xmlns="http://www.w3.org/2000/svg">
  <defs>
    <linearGradient id="bg" x1="0" y1="0" x2="1080" y2="1350" gradientUnits="userSpaceOnUse">
      <stop stop-color="#FFFDF8"/>
      <stop offset="0.5" stop-color="#F7EFE1"/>
      <stop offset="1" stop-color="#EAD8BA"/>
    </linearGradient>
    <radialGradient id="glow" cx="0" cy="0" r="1" gradientUnits="userSpaceOnUse" gradientTransform="translate(170 180) rotate(32) scale(340 340)">
      <stop stop-color="#C7A56A" stop-opacity="0.35"/>
      <stop offset="1" stop-color="#C7A56A" stop-opacity="0"/>
    </radialGradient>
    <linearGradient id="panel" x1="180" y1="220" x2="880" y2="1020" gradientUnits="userSpaceOnUse">
      <stop stop-color="#FFF9F1"/>
      <stop offset="0.55" stop-color="#F0E1C4"/>
      <stop offset="1" stop-color="#DCC395"/>
    </linearGradient>
    <filter id="shadow" x="-20%" y="-20%" width="140%" height="140%">
      <feDropShadow dx="0" dy="24" stdDeviation="28" flood-color="#1F1B17" flood-opacity="0.12"/>
    </filter>
  </defs>
  <rect width="1080" height="1350" fill="url(#bg)"/>
  <circle cx="160" cy="180" r="240" fill="url(#glow)"/>
  <circle cx="890" cy="1140" r="250" fill="#C7A56A" fill-opacity="0.08"/>
  <rect x="120" y="120" width="840" height="1110" rx="68" fill="#FFFDF8" fill-opacity="0.45" stroke="#C7A56A" stroke-opacity="0.18" filter="url(#shadow)"/>
  <rect x="180" y="190" width="720" height="840" rx="52" fill="url(#panel)"/>
  <circle cx="540" cy="485" r="160" fill="#FFFDF8" fill-opacity="0.72"/>
  <circle cx="540" cy="460" r="82" fill="#E7D7B7" fill-opacity="0.75"/>
  <path d="M420 562C444 504 489 474 540 474C591 474 636 504 660 562L705 738C711 761 694 784 670 784H410C386 784 369 761 375 738L420 562Z" fill="#1F1B17" fill-opacity="0.11"/>
  <path d="M340 940C417 885 489 860 540 860C591 860 663 885 740 940" stroke="#C7A56A" stroke-opacity="0.8" stroke-width="12" stroke-linecap="round"/>
  <path d="M392 364C456 318 624 318 688 364" stroke="#7E6B54" stroke-opacity="0.65" stroke-width="9" stroke-linecap="round"/>
  <rect x="230" y="1030" width="620" height="74" rx="37" fill="#FFF9F0" fill-opacity="0.72" stroke="#C7A56A" stroke-opacity="0.22"/>
  <text x="220" y="1190" fill="#1F1B17" font-family="Georgia, 'Times New Roman', serif" font-size="58" letter-spacing="0.5">Champagne Veil</text>
  <text x="220" y="1240" fill="#7E6B54" font-family="Arial, Helvetica, sans-serif" font-size="21" letter-spacing="5">SK MAKEOVER / VIDYA MALAK</text>
</svg>
