<svg width="1080" height="1350" viewBox="0 0 1080 1350" fill="none" xmlns="http://www.w3.org/2000/svg">
  <defs>
    <linearGradient id="bg" x1="0" y1="0" x2="1080" y2="1350" gradientUnits="userSpaceOnUse">
      <stop stop-color="#FFFDF8"/>
      <stop offset="0.48" stop-color="#F8F5F1"/>
      <stop offset="1" stop-color="#E6DED1"/>
    </linearGradient>
    <radialGradient id="glow" cx="0" cy="0" r="1" gradientUnits="userSpaceOnUse" gradientTransform="translate(860 1040) rotate(170) scale(320 320)">
      <stop stop-color="#C7A56A" stop-opacity="0.20"/>
      <stop offset="1" stop-color="#C7A56A" stop-opacity="0"/>
    </radialGradient>
    <linearGradient id="panel" x1="180" y1="220" x2="880" y2="1020" gradientUnits="userSpaceOnUse">
      <stop stop-color="#FFFFFF"/>
      <stop offset="0.5" stop-color="#F7F2EB"/>
      <stop offset="1" stop-color="#DCCFBC"/>
    </linearGradient>
    <filter id="shadow" x="-20%" y="-20%" width="140%" height="140%">
      <feDropShadow dx="0" dy="24" stdDeviation="28" flood-color="#1F1B17" flood-opacity="0.12"/>
    </filter>
  </defs>
  <rect width="1080" height="1350" fill="url(#bg)"/>
  <circle cx="860" cy="1040" r="260" fill="url(#glow)"/>
  <circle cx="140" cy="220" r="230" fill="#C7A56A" fill-opacity="0.07"/>
  <rect x="120" y="120" width="840" height="1110" rx="68" fill="#FFFDF8" fill-opacity="0.45" stroke="#C7A56A" stroke-opacity="0.18" filter="url(#shadow)"/>
  <rect x="180" y="190" width="720" height="840" rx="52" fill="url(#panel)"/>
  <circle cx="540" cy="490" r="166" fill="#FFFDF8" fill-opacity="0.72"/>
  <circle cx="540" cy="468" r="88" fill="#D9CEC0" fill-opacity="0.80"/>
  <path d="M420 564C444 507 489 478 540 478C591 478 636 507 660 564L706 743C712 767 694 792 668 792H412C386 792 368 767 374 743L420 564Z" fill="#1F1B17" fill-opacity="0.09"/>
  <path d="M338 952C420 896 492 870 540 870C588 870 660 896 742 952" stroke="#C7A56A" stroke-opacity="0.58" stroke-width="12" stroke-linecap="round"/>
  <path d="M390 360C468 302 612 302 690 360" stroke="#7E6B54" stroke-opacity="0.45" stroke-width="10" stroke-linecap="round"/>
  <rect x="230" y="1030" width="620" height="74" rx="37" fill="#FFF9F0" fill-opacity="0.72" stroke="#C7A56A" stroke-opacity="0.22"/>
  <text x="220" y="1190" fill="#1F1B17" font-family="Georgia, 'Times New Roman', serif" font-size="58" letter-spacing="0.5">Pearl Reception</text>
  <text x="220" y="1240" fill="#7E6B54" font-family="Arial, Helvetica, sans-serif" font-size="21" letter-spacing="5">SK MAKEOVER / VIDYA MALAK</text>
</svg>
